P3
# output.ppm created by ppma_write.c.
4  4
10
0  0  0 0  0  0 0  0  0 10  10  10
0  0  0 7  7  7 0  0  0 0  0  0
0  0  0 0  0  0 7  7  7 0  0  0
10  10  10 0  0  0 0  0  0 0  0  0
